<svg width="49" height="52" viewBox="0 0 49 52" fill="none" xmlns="http://www.w3.org/2000/svg">
<path d="M8.39552 10.1338V19.8764H6.37413L2.43241 13.3457V19.8764H0.411017V10.1338H2.43241L6.38086 16.6712V10.1338H8.39552Z" fill="black"/>
<path d="M17.7988 14.7776V15.2393C17.7988 15.9798 17.6977 16.6445 17.4956 17.2333C17.2934 17.8221 17.0082 18.324 16.6398 18.7388C16.2715 19.1492 15.8313 19.4637 15.3192 19.6823C14.8116 19.9009 14.2479 20.0102 13.628 20.0102C13.0126 20.0102 12.4488 19.9009 11.9367 19.6823C11.4291 19.4637 10.9889 19.1492 10.6161 18.7388C10.2433 18.324 9.95352 17.8221 9.74689 17.2333C9.54475 16.6445 9.44368 15.9798 9.44368 15.2393V14.7776C9.44368 14.0326 9.54475 13.368 9.74689 12.7836C9.94903 12.1947 10.2343 11.6929 10.6026 11.278C10.9754 10.8632 11.4157 10.5465 11.9233 10.3279C12.4353 10.1093 12.9991 10 13.6145 10C14.2344 10 14.7981 10.1093 15.3057 10.3279C15.8178 10.5465 16.258 10.8632 16.6264 11.278C16.9992 11.6929 17.2867 12.1947 17.4888 12.7836C17.6955 13.368 17.7988 14.0326 17.7988 14.7776ZM15.7572 15.2393V14.7642C15.7572 14.2467 15.71 13.7917 15.6157 13.3992C15.5213 13.0066 15.3821 12.6765 15.1979 12.4089C15.0137 12.1412 14.7891 11.9405 14.5241 11.8067C14.2591 11.6684 13.9559 11.5992 13.6145 11.5992C13.2731 11.5992 12.9699 11.6684 12.7049 11.8067C12.4443 11.9405 12.222 12.1412 12.0378 12.4089C11.8581 12.6765 11.7211 13.0066 11.6268 13.3992C11.5325 13.7917 11.4853 14.2467 11.4853 14.7642V15.2393C11.4853 15.7523 11.5325 16.2073 11.6268 16.6043C11.7211 16.9969 11.8604 17.3292 12.0445 17.6013C12.2287 17.869 12.4533 18.0719 12.7183 18.2102C12.9834 18.3485 13.2866 18.4177 13.628 18.4177C13.9694 18.4177 14.2726 18.3485 14.5376 18.2102C14.8026 18.0719 15.025 17.869 15.2046 17.6013C15.3843 17.3292 15.5213 16.9969 15.6157 16.6043C15.71 16.2073 15.7572 15.7523 15.7572 15.2393Z" fill="black"/>
<path d="M5.5184 29.8888C5.5184 29.7148 5.49145 29.5587 5.43755 29.4204C5.38814 29.2777 5.2938 29.1483 5.15455 29.0323C5.0153 28.9119 4.8199 28.7937 4.56835 28.6777C4.3168 28.5617 3.99113 28.4412 3.59134 28.3163C3.14664 28.1736 2.72439 28.013 2.3246 27.8346C1.92931 27.6561 1.57893 27.4487 1.27348 27.2123C0.972515 26.9714 0.734439 26.6926 0.559252 26.3759C0.388557 26.0591 0.303209 25.6911 0.303209 25.2718C0.303209 24.8659 0.393049 24.4978 0.572728 24.1677C0.752407 23.8332 1.00396 23.5477 1.32738 23.3112C1.6508 23.0704 2.03262 22.8852 2.47284 22.7559C2.91754 22.6265 3.40492 22.5618 3.93498 22.5618C4.65819 22.5618 5.28931 22.6912 5.82835 22.9499C6.36739 23.2086 6.78514 23.5633 7.08161 24.0138C7.38258 24.4644 7.53306 24.9796 7.53306 25.5595H5.52514C5.52514 25.274 5.4645 25.0242 5.34322 24.8101C5.22642 24.5915 5.04674 24.4198 4.80418 24.2949C4.5661 24.17 4.26514 24.1075 3.90129 24.1075C3.55091 24.1075 3.25893 24.161 3.02535 24.2681C2.79177 24.3707 2.61658 24.5112 2.49979 24.6897C2.383 24.8636 2.3246 25.0599 2.3246 25.2785C2.3246 25.4435 2.36503 25.593 2.44589 25.7268C2.53123 25.8606 2.65701 25.9855 2.82321 26.1015C2.98942 26.2175 3.1938 26.3268 3.43637 26.4294C3.67894 26.532 3.95968 26.6324 4.27862 26.7305C4.81316 26.8911 5.28257 27.0718 5.68685 27.2725C6.09562 27.4732 6.43701 27.6985 6.71102 27.9483C6.98504 28.1981 7.19167 28.4814 7.33092 28.7981C7.47017 29.1148 7.5398 29.4739 7.5398 29.8754C7.5398 30.2992 7.45669 30.6784 7.29049 31.0129C7.12429 31.3475 6.88397 31.6308 6.56953 31.8627C6.25509 32.0947 5.88001 32.2709 5.44429 32.3913C5.00856 32.5118 4.52118 32.572 3.98214 32.572C3.49701 32.572 3.01861 32.5096 2.54696 32.3847C2.0753 32.2553 1.64631 32.0612 1.26 31.8025C0.878183 31.5438 0.572728 31.2137 0.343637 30.8122C0.114546 30.4107 0 29.9356 0 29.3869H2.02813C2.02813 29.6903 2.0753 29.9468 2.16963 30.1564C2.26396 30.3661 2.39647 30.5356 2.56717 30.665C2.74236 30.7944 2.94899 30.888 3.18706 30.946C3.42963 31.004 3.69466 31.033 3.98214 31.033C4.33252 31.033 4.62001 30.9839 4.84461 30.8858C5.0737 30.7877 5.24215 30.6516 5.34995 30.4776C5.46225 30.3037 5.5184 30.1074 5.5184 29.8888Z" fill="black"/>
<path d="M14.1872 29.2063H16.2019C16.1614 29.862 15.9795 30.4442 15.6561 30.9527C15.3372 31.4613 14.8902 31.8583 14.3152 32.1438C13.7448 32.4293 13.0575 32.572 12.2534 32.572C11.6245 32.572 11.0608 32.4649 10.5622 32.2508C10.0636 32.0322 9.63683 31.72 9.28197 31.314C8.93159 30.9081 8.66432 30.4174 8.48015 29.842C8.29598 29.2665 8.20389 28.6219 8.20389 27.9082V27.2323C8.20389 26.5186 8.29822 25.874 8.48689 25.2986C8.68004 24.7186 8.95405 24.2257 9.30892 23.8198C9.66828 23.4138 10.0973 23.1016 10.5959 22.883C11.0945 22.6644 11.6515 22.5551 12.2669 22.5551C13.0844 22.5551 13.774 22.7023 14.3354 22.9967C14.9014 23.2912 15.3394 23.6971 15.6494 24.2146C15.9638 24.732 16.1525 25.3209 16.2153 25.9811H14.194C14.1715 25.5885 14.0929 25.2562 13.9581 24.9841C13.8234 24.7075 13.619 24.5001 13.345 24.3618C13.0754 24.219 12.7161 24.1477 12.2669 24.1477C11.93 24.1477 11.6358 24.2101 11.3842 24.335C11.1327 24.4599 10.9215 24.6495 10.7508 24.9038C10.5801 25.158 10.4521 25.4792 10.3668 25.8673C10.2859 26.251 10.2455 26.7015 10.2455 27.219V27.9082C10.2455 28.4122 10.2837 28.8561 10.36 29.2397C10.4364 29.6189 10.5532 29.9401 10.7104 30.2033C10.8721 30.462 11.0788 30.6583 11.3303 30.7921C11.5864 30.9215 11.8941 30.9862 12.2534 30.9862C12.6757 30.9862 13.0238 30.9193 13.2978 30.7854C13.5718 30.6516 13.7807 30.4531 13.9244 30.1899C14.0727 29.9267 14.1603 29.5988 14.1872 29.2063Z" fill="black"/>
<path d="M17.1153 22.6956H20.774C21.5242 22.6956 22.1688 22.8072 22.7078 23.0302C23.2513 23.2532 23.6691 23.5834 23.9611 24.0205C24.253 24.4577 24.399 24.9952 24.399 25.6331C24.399 26.155 24.3092 26.6034 24.1295 26.9781C23.9543 27.3483 23.705 27.6584 23.3816 27.9082C23.0627 28.1535 22.6876 28.3498 22.2563 28.497L21.6162 28.8316H18.4359L18.4224 27.2658H20.7875C21.1423 27.2658 21.4366 27.2034 21.6701 27.0784C21.9037 26.9535 22.0789 26.7796 22.1957 26.5565C22.317 26.3335 22.3776 26.0748 22.3776 25.7803C22.3776 25.4681 22.3192 25.1982 22.2024 24.9707C22.0856 24.7432 21.9082 24.5692 21.6701 24.4488C21.4321 24.3283 21.1333 24.2681 20.774 24.2681H19.1367V32.4382H17.1153V22.6956ZM22.6 32.4382L20.363 28.0955L22.4989 28.0821L24.7629 32.3445V32.4382H22.6Z" fill="black"/>
<path d="M33.6001 27.3394V27.8011C33.6001 28.5416 33.4991 29.2063 33.2969 29.7951C33.0948 30.384 32.8095 30.8858 32.4412 31.3007C32.0729 31.7111 31.6326 32.0256 31.1206 32.2441C30.613 32.4627 30.0492 32.572 29.4293 32.572C28.8139 32.572 28.2502 32.4627 27.7381 32.2441C27.2305 32.0256 26.7903 31.7111 26.4175 31.3007C26.0446 30.8858 25.7549 30.384 25.5483 29.7951C25.3461 29.2063 25.245 28.5416 25.245 27.8011V27.3394C25.245 26.5944 25.3461 25.9298 25.5483 25.3454C25.7504 24.7566 26.0356 24.2547 26.404 23.8399C26.7768 23.425 27.217 23.1083 27.7246 22.8897C28.2367 22.6711 28.8004 22.5618 29.4158 22.5618C30.0357 22.5618 30.5995 22.6711 31.1071 22.8897C31.6192 23.1083 32.0594 23.425 32.4277 23.8399C32.8006 24.2547 33.088 24.7566 33.2902 25.3454C33.4968 25.9298 33.6001 26.5944 33.6001 27.3394ZM31.5585 27.8011V27.326C31.5585 26.8086 31.5114 26.3536 31.417 25.961C31.3227 25.5684 31.1834 25.2383 30.9993 24.9707C30.8151 24.703 30.5905 24.5023 30.3255 24.3685C30.0604 24.2302 29.7572 24.161 29.4158 24.161C29.0745 24.161 28.7712 24.2302 28.5062 24.3685C28.2457 24.5023 28.0233 24.703 27.8392 24.9707C27.6595 25.2383 27.5225 25.5684 27.4281 25.961C27.3338 26.3536 27.2866 26.8086 27.2866 27.326V27.8011C27.2866 28.3141 27.3338 28.7691 27.4281 29.1661C27.5225 29.5587 27.6617 29.891 27.8459 30.1631C28.0301 30.4308 28.2547 30.6338 28.5197 30.772C28.7847 30.9103 29.0879 30.9795 29.4293 30.9795C29.7707 30.9795 30.0739 30.9103 30.339 30.772C30.604 30.6338 30.8263 30.4308 31.006 30.1631C31.1857 29.891 31.3227 29.5587 31.417 29.1661C31.5114 28.7691 31.5585 28.3141 31.5585 27.8011Z" fill="black"/>
<path d="M40.9483 30.8724V32.4382H36.0094V30.8724H40.9483ZM36.6629 22.6956V32.4382H34.6416V22.6956H36.6629Z" fill="black"/>
<path d="M48 30.8724V32.4382H43.0611V30.8724H48ZM43.7146 22.6956V32.4382H41.6933V22.6956H43.7146Z" fill="black"/>
<path d="M3.42289 45H1.28695L1.30043 43.4342H3.42289C3.95295 43.4342 4.3999 43.316 4.76375 43.0796C5.1276 42.8387 5.40161 42.4885 5.58578 42.0291C5.77445 41.5696 5.86878 41.0142 5.86878 40.3629V39.8878C5.86878 39.3882 5.81487 38.9488 5.70707 38.5697C5.60375 38.1905 5.44878 37.8715 5.24215 37.6128C5.03551 37.3541 4.78172 37.16 4.48075 37.0307C4.17979 36.8968 3.83391 36.8299 3.44311 36.8299H1.24653V35.2575H3.44311C4.09894 35.2575 4.69862 35.369 5.24215 35.592C5.79017 35.8106 6.26407 36.1251 6.66386 36.5355C7.06365 36.9459 7.37135 37.4366 7.58696 38.0076C7.80707 38.5741 7.91712 39.2053 7.91712 39.9012V40.3629C7.91712 41.0544 7.80707 41.6856 7.58696 42.2566C7.37135 42.8276 7.06365 43.3183 6.66386 43.7287C6.26856 44.1346 5.79466 44.4491 5.24215 44.6721C4.69412 44.8907 4.08771 45 3.42289 45ZM2.43241 35.2575V45H0.411017V35.2575H2.43241Z" fill="black"/>
<path d="M12.8127 36.9236L10.1444 45H7.99501L11.6403 35.2575H13.0081L12.8127 36.9236ZM15.0295 45L12.3545 36.9236L12.1389 35.2575H13.5202L17.1856 45H15.0295ZM14.9082 41.3733V42.9458H9.72667V41.3733H14.9082Z" fill="black"/>
<path d="M18.1394 35.2575L20.1878 39.7005L22.2361 35.2575H24.4394L21.212 41.4536V45H19.1636V41.4536L15.9294 35.2575H18.1394Z" fill="black"/>
<path d="M20 14.696L46.5637 14.696L43.8235 11.9558L44.4607 11.3186L48.2842 15.1421L44.4607 18.9656L43.8235 18.3283L46.5637 15.5882L20 15.5882V14.696Z" fill="black"/>
<path d="M48 40.8112L27.7206 40.8112L30.4608 43.5514L29.8235 44.1886L26 40.3651L29.8235 36.5416L30.4608 37.1789L27.7206 39.919L48 39.919L48 40.8112Z" fill="black"/>
</svg>
