<svg width="64" height="46" viewBox="0 0 64 46" fill="none" xmlns="http://www.w3.org/2000/svg">
<path d="M11.0341 0.175886V12.9804H8.37742L3.19688 4.39714V12.9804H0.540193V0.175886H3.19688L8.38628 8.76791V0.175886H11.0341Z" fill="#F0F0F0"/>
<path d="M23.3927 6.27912V6.88593C23.3927 7.85916 23.2598 8.73273 22.9942 9.50663C22.7285 10.2805 22.3536 10.9401 21.8695 11.4853C21.3854 12.0247 20.8068 12.4381 20.1338 12.7253C19.4667 13.0126 18.7258 13.1563 17.911 13.1563C17.1022 13.1563 16.3613 13.0126 15.6883 12.7253C15.0212 12.4381 14.4426 12.0247 13.9526 11.4853C13.4626 10.9401 13.0818 10.2805 12.8102 9.50663C12.5445 8.73273 12.4117 7.85916 12.4117 6.88593V6.27912C12.4117 5.30003 12.5445 4.42646 12.8102 3.65842C13.0759 2.88453 13.4508 2.22496 13.9349 1.67971C14.4249 1.13446 15.0034 0.7182 15.6706 0.43092C16.3436 0.14364 17.0845 0 17.8933 0C18.708 0 19.449 0.14364 20.1161 0.43092C20.7891 0.7182 21.3677 1.13446 21.8518 1.67971C22.3418 2.22496 22.7196 2.88453 22.9853 3.65842C23.2569 4.42646 23.3927 5.30003 23.3927 6.27912ZM20.7094 6.88593V6.26153C20.7094 5.58144 20.6474 4.98343 20.5234 4.4675C20.3995 3.95157 20.2165 3.51772 19.9744 3.16594C19.7323 2.81417 19.4372 2.55034 19.0888 2.37446C18.7405 2.19271 18.342 2.10184 17.8933 2.10184C17.4446 2.10184 17.0461 2.19271 16.6978 2.37446C16.3554 2.55034 16.0632 2.81417 15.8211 3.16594C15.585 3.51772 15.4049 3.95157 15.2809 4.4675C15.1569 4.98343 15.0949 5.58144 15.0949 6.26153V6.88593C15.0949 7.56016 15.1569 8.15817 15.2809 8.67996C15.4049 9.1959 15.5879 9.63268 15.83 9.99031C16.072 10.3421 16.3672 10.6088 16.7155 10.7906C17.0638 10.9723 17.4624 11.0632 17.911 11.0632C18.3597 11.0632 18.7582 10.9723 19.1065 10.7906C19.4549 10.6088 19.7471 10.3421 19.9833 9.99031C20.2194 9.63268 20.3995 9.1959 20.5234 8.67996C20.6474 8.15817 20.7094 7.56016 20.7094 6.88593Z" fill="#F0F0F0"/>
<path d="M7.25276 26.1396C7.25276 25.9109 7.21734 25.7057 7.14649 25.524C7.08155 25.3363 6.95757 25.1663 6.77455 25.0139C6.59154 24.8556 6.33472 24.7002 6.00412 24.5478C5.6735 24.3954 5.24548 24.2371 4.72005 24.0729C4.13558 23.8853 3.58063 23.6742 3.05519 23.4397C2.53566 23.2052 2.07517 22.9326 1.67371 22.6218C1.27816 22.3053 0.965263 21.9388 0.735017 21.5226C0.510674 21.1063 0.398503 20.6226 0.398503 20.0715C0.398503 19.538 0.516578 19.0543 0.752728 18.6204C0.988878 18.1807 1.31949 17.8055 1.74456 17.4948C2.16963 17.1782 2.67145 16.9349 3.25002 16.7648C3.83449 16.5948 4.47504 16.5098 5.17169 16.5098C6.12219 16.5098 6.95167 16.6798 7.66012 17.0199C8.36857 17.3599 8.91762 17.826 9.30726 18.4182C9.70282 19.0103 9.90059 19.6875 9.90059 20.4497H7.26161C7.26161 20.0744 7.18191 19.7461 7.02251 19.4647C6.86901 19.1774 6.63286 18.9517 6.31406 18.7875C6.00116 18.6234 5.60561 18.5413 5.12741 18.5413C4.66692 18.5413 4.28317 18.6116 3.97618 18.7524C3.66918 18.8872 3.43894 19.0719 3.28544 19.3064C3.13194 19.535 3.05519 19.793 3.05519 20.0803C3.05519 20.2972 3.10833 20.4936 3.21459 20.6695C3.32676 20.8454 3.49207 21.0096 3.71051 21.162C3.92895 21.3144 4.19757 21.4581 4.51637 21.5929C4.83517 21.7278 5.20416 21.8597 5.62332 21.9887C6.32587 22.1997 6.94281 22.4372 7.47415 22.701C8.01139 22.9648 8.46008 23.2609 8.8202 23.5892C9.18033 23.9175 9.45191 24.2898 9.63492 24.7061C9.81794 25.1224 9.90945 25.5943 9.90945 26.122C9.90945 26.6789 9.80023 27.1773 9.58179 27.617C9.36335 28.0567 9.0475 28.429 8.63424 28.7339C8.22097 29.0387 7.72801 29.2703 7.15535 29.4286C6.58268 29.5869 5.94213 29.6661 5.23368 29.6661C4.59607 29.6661 3.96732 29.584 3.34743 29.4198C2.72753 29.2498 2.16372 28.9948 1.656 28.6547C1.15418 28.3147 0.752728 27.8808 0.451637 27.3532C0.150546 26.8255 0 26.2011 0 25.48H2.66554C2.66554 25.8787 2.72753 26.2158 2.85151 26.4913C2.97549 26.7669 3.14965 26.9897 3.37399 27.1597C3.60424 27.3297 3.87581 27.4528 4.18871 27.5291C4.50751 27.6053 4.85584 27.6434 5.23368 27.6434C5.69417 27.6434 6.07201 27.5789 6.3672 27.4499C6.66829 27.3209 6.88968 27.1421 7.03137 26.9135C7.17896 26.6848 7.25276 26.4268 7.25276 26.1396Z" fill="#F0F0F0"/>
<path d="M18.6461 25.2425H21.2939C21.2408 26.1044 21.0016 26.8695 20.5766 27.5379C20.1574 28.2062 19.57 28.728 18.8143 29.1032C18.0645 29.4785 17.1613 29.6661 16.1045 29.6661C15.278 29.6661 14.537 29.5254 13.8817 29.2439C13.2264 28.9567 12.6656 28.5463 12.1992 28.0127C11.7387 27.4792 11.3874 26.8343 11.1453 26.078C10.9033 25.3217 10.7823 24.4745 10.7823 23.5365V22.6482C10.7823 21.7102 10.9062 20.863 11.1542 20.1067C11.4081 19.3445 11.7682 18.6967 12.2346 18.1631C12.7069 17.6296 13.2707 17.2192 13.926 16.9319C14.5813 16.6447 15.3134 16.501 16.1222 16.501C17.1967 16.501 18.1029 16.6945 18.8409 17.0814C19.5847 17.4684 20.1604 18.0019 20.5677 18.682C20.981 19.3621 21.2289 20.136 21.3116 21.0037H18.6549C18.6254 20.4878 18.5221 20.051 18.345 19.6933C18.1678 19.3298 17.8992 19.0572 17.5391 18.8755C17.1849 18.6879 16.7126 18.5941 16.1222 18.5941C15.6794 18.5941 15.2927 18.6761 14.9621 18.8403C14.6315 19.0045 14.354 19.2536 14.1297 19.5878C13.9053 19.922 13.7371 20.3441 13.6249 20.8542C13.5186 21.3584 13.4655 21.9505 13.4655 22.6306V23.5365C13.4655 24.199 13.5157 24.7823 13.6161 25.2865C13.7164 25.7849 13.8699 26.207 14.0765 26.5529C14.2891 26.8929 14.5607 27.1509 14.8913 27.3268C15.2278 27.4968 15.6322 27.5818 16.1045 27.5818C16.6594 27.5818 17.117 27.4939 17.4771 27.318C17.8372 27.1421 18.1118 26.8812 18.3007 26.5353C18.4955 26.1894 18.6106 25.7585 18.6461 25.2425Z" fill="#F0F0F0"/>
<path d="M22.4944 16.6857H27.303C28.2889 16.6857 29.1361 16.8323 29.8445 17.1254C30.5589 17.4186 31.1079 17.8524 31.4917 18.427C31.8754 19.0015 32.0673 19.708 32.0673 20.5464C32.0673 21.2323 31.9492 21.8216 31.7131 22.314C31.4828 22.8007 31.1552 23.2081 30.7301 23.5365C30.3109 23.8589 29.818 24.1169 29.2512 24.3103L28.4099 24.7501H24.2301L24.2123 22.6922H27.3207C27.7871 22.6922 28.1738 22.6101 28.4808 22.446C28.7878 22.2818 29.018 22.0531 29.1715 21.76C29.3309 21.4669 29.4106 21.1268 29.4106 20.7399C29.4106 20.3295 29.3338 19.9748 29.1804 19.6758C29.0269 19.3768 28.7937 19.1481 28.4808 18.9898C28.1679 18.8315 27.7753 18.7524 27.303 18.7524H25.151V29.4902H22.4944V16.6857ZM29.7028 29.4902L26.7628 23.7827L29.57 23.7651L32.5455 29.3671V29.4902H29.7028Z" fill="#F0F0F0"/>
<path d="M44.1602 22.7889V23.3957C44.1602 24.369 44.0273 25.2425 43.7617 26.0164C43.496 26.7903 43.1211 27.4499 42.637 27.9952C42.1529 28.5345 41.5743 28.9479 40.9013 29.2352C40.2342 29.5224 39.4933 29.6661 38.6785 29.6661C37.8697 29.6661 37.1288 29.5224 36.4558 29.2352C35.7887 28.9479 35.2101 28.5345 34.7201 27.9952C34.2301 27.4499 33.8493 26.7903 33.5777 26.0164C33.312 25.2425 33.1792 24.369 33.1792 23.3957V22.7889C33.1792 21.8098 33.312 20.9363 33.5777 20.1682C33.8434 19.3943 34.2183 18.7348 34.7024 18.1895C35.1924 17.6443 35.7709 17.228 36.4381 16.9407C37.1111 16.6535 37.852 16.5098 38.6608 16.5098C39.4756 16.5098 40.2165 16.6535 40.8836 16.9407C41.5566 17.228 42.1352 17.6443 42.6193 18.1895C43.1093 18.7348 43.4871 19.3943 43.7528 20.1682C44.0244 20.9363 44.1602 21.8098 44.1602 22.7889ZM41.4769 23.3957V22.7713C41.4769 22.0913 41.4149 21.4932 41.291 20.9773C41.167 20.4614 40.984 20.0275 40.7419 19.6758C40.4999 19.324 40.2047 19.0602 39.8563 18.8843C39.508 18.7025 39.1095 18.6116 38.6608 18.6116C38.2121 18.6116 37.8136 18.7025 37.4653 18.8843C37.1229 19.0602 36.8307 19.324 36.5886 19.6758C36.3525 20.0275 36.1724 20.4614 36.0484 20.9773C35.9244 21.4932 35.8625 22.0913 35.8625 22.7713V23.3957C35.8625 24.07 35.9244 24.668 36.0484 25.1898C36.1724 25.7057 36.3554 26.1425 36.5975 26.5001C36.8395 26.8519 37.1347 27.1187 37.483 27.3004C37.8314 27.4822 38.2299 27.573 38.6785 27.573C39.1272 27.573 39.5257 27.4822 39.8741 27.3004C40.2224 27.1187 40.5146 26.8519 40.7508 26.5001C40.9869 26.1425 41.167 25.7057 41.291 25.1898C41.4149 24.668 41.4769 24.07 41.4769 23.3957Z" fill="#F0F0F0"/>
<path d="M53.8178 27.4323V29.4902H47.3266V27.4323H53.8178ZM48.1856 16.6857V29.4902H45.5289V16.6857H48.1856Z" fill="#F0F0F0"/>
<path d="M63.0857 27.4323V29.4902H56.5945V27.4323H63.0857ZM57.4535 16.6857V29.4902H54.7968V16.6857H57.4535Z" fill="#F0F0F0"/>
<path d="M4.49866 46H1.69142L1.70914 43.9421H4.49866C5.1953 43.9421 5.78272 43.7868 6.26093 43.476C6.73913 43.1594 7.09926 42.6992 7.34131 42.0953C7.58927 41.4915 7.71325 40.7615 7.71325 39.9056V39.2812C7.71325 38.6245 7.64241 38.047 7.50072 37.5487C7.36493 37.0503 7.16125 36.6311 6.88968 36.2911C6.6181 35.9511 6.28454 35.696 5.88899 35.526C5.49344 35.3501 5.03885 35.2622 4.52523 35.2622H1.63829V33.1955H4.52523C5.38717 33.1955 6.17532 33.3421 6.88968 33.6352C7.60994 33.9225 8.23278 34.3358 8.75821 34.8752C9.28365 35.4146 9.68806 36.0595 9.97144 36.81C10.2607 37.5546 10.4054 38.3841 10.4054 39.2988V39.9056C10.4054 40.8143 10.2607 41.6439 9.97144 42.3943C9.68806 43.1448 9.28365 43.7897 8.75821 44.3291C8.23868 44.8626 7.61584 45.2759 6.88968 45.5691C6.16942 45.8564 5.37241 46 4.49866 46ZM3.19688 33.1955V46H0.540193V33.1955H3.19688Z" fill="#F0F0F0"/>
<path d="M16.8395 35.3853L13.3327 46H10.5077L15.2986 33.1955H17.0963L16.8395 35.3853ZM19.753 46L16.2373 35.3853L15.9539 33.1955H17.7693L22.5868 46H19.753ZM19.5936 41.2335V43.3002H12.7836V41.2335H19.5936Z" fill="#F0F0F0"/>
<path d="M23.8404 33.1955L26.5325 39.0349L29.2246 33.1955H32.1204L27.8786 41.339V46H25.1865V41.339L20.9358 33.1955H23.8404Z" fill="#F0F0F0"/>
<path d="M26.2861 6.17181L61.1984 6.17181L57.597 2.57044L58.4345 1.73291L63.4597 6.75809L58.4345 11.7833L57.597 10.9457L61.1984 7.34436H26.2861V6.17181Z" fill="white"/>
<path d="M63.0862 40.4947L36.4332 40.4947L40.0346 44.0961L39.1971 44.9337L34.1719 39.9085L39.197 34.8833L40.0346 35.7208L36.4332 39.3222L63.0862 39.3222V40.4947Z" fill="white"/>
</svg>
