<svg width="49" height="35" viewBox="0 0 49 35" fill="none" xmlns="http://www.w3.org/2000/svg">
<path d="M8.39552 0.133826V9.87637H6.37413L2.43241 3.34565V9.87637H0.411017V0.133826H2.43241L6.38086 6.67123V0.133826H8.39552Z" fill="black"/>
<path d="M17.7988 4.77759V5.23929C17.7988 5.9798 17.6977 6.64447 17.4956 7.2333C17.2934 7.82214 17.0082 8.32399 16.6398 8.73885C16.2715 9.14925 15.8313 9.46374 15.3192 9.68232C14.8116 9.9009 14.2479 10.0102 13.628 10.0102C13.0126 10.0102 12.4488 9.9009 11.9367 9.68232C11.4291 9.46374 10.9889 9.14925 10.6161 8.73885C10.2433 8.32399 9.95352 7.82214 9.74689 7.2333C9.54475 6.64447 9.44368 5.9798 9.44368 5.23929V4.77759C9.44368 4.03263 9.54475 3.36796 9.74689 2.78358C9.94903 2.19475 10.2343 1.6929 10.6026 1.27804C10.9754 0.863179 11.4157 0.546457 11.9233 0.327874C12.4353 0.109291 12.9991 0 13.6145 0C14.2344 0 14.7981 0.109291 15.3057 0.327874C15.8178 0.546457 16.258 0.863179 16.6264 1.27804C16.9992 1.6929 17.2867 2.19475 17.4888 2.78358C17.6955 3.36796 17.7988 4.03263 17.7988 4.77759ZM15.7572 5.23929V4.76421C15.7572 4.24675 15.71 3.79174 15.6157 3.39918C15.5213 3.00663 15.3821 2.67652 15.1979 2.40887C15.0137 2.14122 14.7891 1.94048 14.5241 1.80665C14.2591 1.66837 13.9559 1.59922 13.6145 1.59922C13.2731 1.59922 12.9699 1.66837 12.7049 1.80665C12.4443 1.94048 12.222 2.14122 12.0378 2.40887C11.8581 2.67652 11.7211 3.00663 11.6268 3.39918C11.5325 3.79174 11.4853 4.24675 11.4853 4.76421V5.23929C11.4853 5.75229 11.5325 6.2073 11.6268 6.60432C11.7211 6.99688 11.8604 7.32921 12.0445 7.60133C12.2287 7.86898 12.4533 8.07195 12.7183 8.21023C12.9834 8.34852 13.2866 8.41766 13.628 8.41766C13.9694 8.41766 14.2726 8.34852 14.5376 8.21023C14.8026 8.07195 15.025 7.86898 15.2046 7.60133C15.3843 7.32921 15.5213 6.99688 15.6157 6.60432C15.71 6.2073 15.7572 5.75229 15.7572 5.23929Z" fill="black"/>
<path d="M5.5184 19.8888C5.5184 19.7148 5.49145 19.5587 5.43755 19.4204C5.38814 19.2777 5.2938 19.1483 5.15455 19.0323C5.0153 18.9119 4.8199 18.7937 4.56835 18.6777C4.3168 18.5617 3.99113 18.4412 3.59134 18.3163C3.14664 18.1736 2.72439 18.013 2.3246 17.8346C1.92931 17.6561 1.57893 17.4487 1.27348 17.2123C0.972515 16.9714 0.734439 16.6926 0.559252 16.3759C0.388557 16.0591 0.303209 15.6911 0.303209 15.2718C0.303209 14.8659 0.393049 14.4978 0.572728 14.1677C0.752407 13.8332 1.00396 13.5477 1.32738 13.3112C1.6508 13.0704 2.03262 12.8852 2.47284 12.7559C2.91754 12.6265 3.40492 12.5618 3.93498 12.5618C4.65819 12.5618 5.28931 12.6912 5.82835 12.9499C6.36739 13.2086 6.78514 13.5633 7.08161 14.0138C7.38258 14.4644 7.53306 14.9796 7.53306 15.5595H5.52514C5.52514 15.274 5.4645 15.0242 5.34322 14.8101C5.22642 14.5915 5.04674 14.4198 4.80418 14.2949C4.5661 14.17 4.26514 14.1075 3.90129 14.1075C3.55091 14.1075 3.25893 14.161 3.02535 14.2681C2.79177 14.3707 2.61658 14.5112 2.49979 14.6897C2.383 14.8636 2.3246 15.0599 2.3246 15.2785C2.3246 15.4435 2.36503 15.593 2.44589 15.7268C2.53123 15.8606 2.65701 15.9855 2.82321 16.1015C2.98942 16.2175 3.1938 16.3268 3.43637 16.4294C3.67894 16.532 3.95968 16.6324 4.27862 16.7305C4.81316 16.8911 5.28257 17.0718 5.68685 17.2725C6.09562 17.4732 6.43701 17.6985 6.71102 17.9483C6.98504 18.1981 7.19167 18.4814 7.33092 18.7981C7.47017 19.1148 7.5398 19.4739 7.5398 19.8754C7.5398 20.2992 7.45669 20.6784 7.29049 21.0129C7.12429 21.3475 6.88397 21.6308 6.56953 21.8627C6.25509 22.0947 5.88001 22.2709 5.44429 22.3913C5.00856 22.5118 4.52118 22.572 3.98214 22.572C3.49701 22.572 3.01861 22.5096 2.54696 22.3847C2.0753 22.2553 1.64631 22.0612 1.26 21.8025C0.878183 21.5438 0.572728 21.2137 0.343637 20.8122C0.114546 20.4107 0 19.9356 0 19.3869H2.02813C2.02813 19.6903 2.0753 19.9468 2.16963 20.1564C2.26396 20.3661 2.39647 20.5356 2.56717 20.665C2.74236 20.7944 2.94899 20.888 3.18706 20.946C3.42963 21.004 3.69466 21.033 3.98214 21.033C4.33252 21.033 4.62001 20.9839 4.84461 20.8858C5.0737 20.7877 5.24215 20.6516 5.34995 20.4776C5.46225 20.3037 5.5184 20.1074 5.5184 19.8888Z" fill="black"/>
<path d="M14.1872 19.2063H16.2019C16.1614 19.862 15.9795 20.4442 15.6561 20.9527C15.3372 21.4613 14.8902 21.8583 14.3152 22.1438C13.7448 22.4293 13.0575 22.572 12.2534 22.572C11.6245 22.572 11.0608 22.4649 10.5622 22.2508C10.0636 22.0322 9.63683 21.72 9.28197 21.314C8.93159 20.9081 8.66432 20.4174 8.48015 19.842C8.29598 19.2665 8.20389 18.6219 8.20389 17.9082V17.2323C8.20389 16.5186 8.29822 15.874 8.48689 15.2986C8.68004 14.7186 8.95405 14.2257 9.30892 13.8198C9.66828 13.4138 10.0973 13.1016 10.5959 12.883C11.0945 12.6644 11.6515 12.5551 12.2669 12.5551C13.0844 12.5551 13.774 12.7023 14.3354 12.9967C14.9014 13.2912 15.3394 13.6971 15.6494 14.2146C15.9638 14.732 16.1525 15.3209 16.2153 15.9811H14.194C14.1715 15.5885 14.0929 15.2562 13.9581 14.9841C13.8234 14.7075 13.619 14.5001 13.345 14.3618C13.0754 14.219 12.7161 14.1477 12.2669 14.1477C11.93 14.1477 11.6358 14.2101 11.3842 14.335C11.1327 14.4599 10.9215 14.6495 10.7508 14.9038C10.5801 15.158 10.4521 15.4792 10.3668 15.8673C10.2859 16.251 10.2455 16.7015 10.2455 17.219V17.9082C10.2455 18.4122 10.2837 18.8561 10.36 19.2397C10.4364 19.6189 10.5532 19.9401 10.7104 20.2033C10.8721 20.462 11.0788 20.6583 11.3303 20.7921C11.5864 20.9215 11.8941 20.9862 12.2534 20.9862C12.6757 20.9862 13.0238 20.9193 13.2978 20.7854C13.5718 20.6516 13.7807 20.4531 13.9244 20.1899C14.0727 19.9267 14.1603 19.5988 14.1872 19.2063Z" fill="black"/>
<path d="M17.1153 12.6956H20.774C21.5242 12.6956 22.1688 12.8072 22.7078 13.0302C23.2513 13.2532 23.6691 13.5834 23.9611 14.0205C24.253 14.4577 24.399 14.9952 24.399 15.6331C24.399 16.155 24.3092 16.6034 24.1295 16.9781C23.9543 17.3483 23.705 17.6584 23.3816 17.9082C23.0627 18.1535 22.6876 18.3498 22.2563 18.497L21.6162 18.8316H18.4359L18.4224 17.2658H20.7875C21.1423 17.2658 21.4366 17.2034 21.6701 17.0784C21.9037 16.9535 22.0789 16.7796 22.1957 16.5565C22.317 16.3335 22.3776 16.0748 22.3776 15.7803C22.3776 15.4681 22.3192 15.1982 22.2024 14.9707C22.0856 14.7432 21.9082 14.5692 21.6701 14.4488C21.4321 14.3283 21.1333 14.2681 20.774 14.2681H19.1367V22.4382H17.1153V12.6956ZM22.6 22.4382L20.363 18.0955L22.4989 18.0821L24.7629 22.3445V22.4382H22.6Z" fill="black"/>
<path d="M33.6001 17.3394V17.8011C33.6001 18.5416 33.4991 19.2063 33.2969 19.7951C33.0948 20.384 32.8095 20.8858 32.4412 21.3007C32.0729 21.7111 31.6326 22.0256 31.1206 22.2441C30.613 22.4627 30.0492 22.572 29.4293 22.572C28.8139 22.572 28.2502 22.4627 27.7381 22.2441C27.2305 22.0256 26.7903 21.7111 26.4175 21.3007C26.0446 20.8858 25.7549 20.384 25.5483 19.7951C25.3461 19.2063 25.245 18.5416 25.245 17.8011V17.3394C25.245 16.5944 25.3461 15.9298 25.5483 15.3454C25.7504 14.7566 26.0356 14.2547 26.404 13.8399C26.7768 13.425 27.217 13.1083 27.7246 12.8897C28.2367 12.6711 28.8004 12.5618 29.4158 12.5618C30.0357 12.5618 30.5995 12.6711 31.1071 12.8897C31.6192 13.1083 32.0594 13.425 32.4277 13.8399C32.8006 14.2547 33.088 14.7566 33.2902 15.3454C33.4968 15.9298 33.6001 16.5944 33.6001 17.3394ZM31.5585 17.8011V17.326C31.5585 16.8086 31.5114 16.3536 31.417 15.961C31.3227 15.5684 31.1834 15.2383 30.9993 14.9707C30.8151 14.703 30.5905 14.5023 30.3255 14.3685C30.0604 14.2302 29.7572 14.161 29.4158 14.161C29.0745 14.161 28.7712 14.2302 28.5062 14.3685C28.2457 14.5023 28.0233 14.703 27.8392 14.9707C27.6595 15.2383 27.5225 15.5684 27.4281 15.961C27.3338 16.3536 27.2866 16.8086 27.2866 17.326V17.8011C27.2866 18.3141 27.3338 18.7691 27.4281 19.1661C27.5225 19.5587 27.6617 19.891 27.8459 20.1631C28.0301 20.4308 28.2547 20.6338 28.5197 20.772C28.7847 20.9103 29.0879 20.9795 29.4293 20.9795C29.7707 20.9795 30.0739 20.9103 30.339 20.772C30.604 20.6338 30.8263 20.4308 31.006 20.1631C31.1857 19.891 31.3227 19.5587 31.417 19.1661C31.5114 18.7691 31.5585 18.3141 31.5585 17.8011Z" fill="black"/>
<path d="M40.9483 20.8724V22.4382H36.0094V20.8724H40.9483ZM36.6629 12.6956V22.4382H34.6416V12.6956H36.6629Z" fill="black"/>
<path d="M48 20.8724V22.4382H43.0611V20.8724H48ZM43.7146 12.6956V22.4382H41.6933V12.6956H43.7146Z" fill="black"/>
<path d="M3.42289 35H1.28695L1.30043 33.4342H3.42289C3.95295 33.4342 4.3999 33.316 4.76375 33.0796C5.1276 32.8387 5.40161 32.4885 5.58578 32.0291C5.77445 31.5696 5.86878 31.0142 5.86878 30.3629V29.8878C5.86878 29.3882 5.81487 28.9488 5.70707 28.5697C5.60375 28.1905 5.44878 27.8715 5.24215 27.6128C5.03551 27.3541 4.78172 27.16 4.48075 27.0307C4.17979 26.8968 3.83391 26.8299 3.44311 26.8299H1.24653V25.2575H3.44311C4.09894 25.2575 4.69862 25.369 5.24215 25.592C5.79017 25.8106 6.26407 26.1251 6.66386 26.5355C7.06365 26.9459 7.37135 27.4366 7.58696 28.0076C7.80707 28.5741 7.91712 29.2053 7.91712 29.9012V30.3629C7.91712 31.0544 7.80707 31.6856 7.58696 32.2566C7.37135 32.8276 7.06365 33.3183 6.66386 33.7287C6.26856 34.1346 5.79466 34.4491 5.24215 34.6721C4.69412 34.8907 4.08771 35 3.42289 35ZM2.43241 25.2575V35H0.411017V25.2575H2.43241Z" fill="black"/>
<path d="M12.8127 26.9236L10.1444 35H7.99501L11.6403 25.2575H13.0081L12.8127 26.9236ZM15.0295 35L12.3545 26.9236L12.1389 25.2575H13.5202L17.1856 35H15.0295ZM14.9082 31.3733V32.9458H9.72667V31.3733H14.9082Z" fill="black"/>
<path d="M18.1394 25.2575L20.1878 29.7005L22.2361 25.2575H24.4394L21.212 31.4536V35H19.1636V31.4536L15.9294 25.2575H18.1394Z" fill="black"/>
<path d="M20 4.69603L46.5637 4.69603L43.8235 1.95585L44.4607 1.3186L48.2842 5.14211L44.4607 8.96561L43.8235 8.32836L46.5637 5.58818H20V4.69603Z" fill="black"/>
<path d="M48 30.8112L27.7206 30.8112L30.4608 33.5514L29.8235 34.1886L26 30.3651L29.8235 26.5416L30.4608 27.1789L27.7206 29.9191L48 29.919V30.8112Z" fill="black"/>
</svg>
